<svg xmlns="http://www.w3.org/2000/svg" viewBox="0 0 689 292" fill="none">
<path d="M326.698 206H307.052V90.4331H329.01L367.972 180.245L406.935 90.4331H428.727V206H409.246V127.91L375.402 206H360.543L326.698 127.91V206ZM469.306 90.4331V189.656H521.146V206H469.306V90.4331ZM581.942 90.4331C594.38 90.4331 605.111 92.7995 614.136 97.5322C623.271 102.265 630.315 109.034 635.268 117.839C640.331 126.534 642.863 136.825 642.863 148.712C642.863 160.489 640.331 170.67 635.268 179.255C630.315 187.839 623.271 194.443 614.136 199.066C605.111 203.689 594.38 206 581.942 206H540.669V90.4331H581.942ZM581.942 189.656C595.15 189.656 605.276 186.078 612.32 178.924C619.474 171.66 623.051 161.589 623.051 148.712C623.051 135.724 619.474 125.488 612.32 118.004C605.276 110.52 595.15 106.778 581.942 106.778H560.315V189.656H581.942ZM664.568 90.4331H684.214V206H664.568V90.4331Z" fill="white"/>
<circle cx="111.98" cy="11.54" r="0.60" fill="white"/>
<circle cx="121.47" cy="11.54" r="1.08" fill="white"/>
<circle cx="130.97" cy="11.54" r="1.08" fill="white"/>
<circle cx="140.46" cy="11.54" r="0.60" fill="white"/>
<circle cx="102.49" cy="19.77" r="1.08" fill="white"/>
<circle cx="111.98" cy="19.77" r="1.08" fill="white"/>
<circle cx="121.47" cy="19.77" r="1.08" fill="white"/>
<circle cx="130.97" cy="19.77" r="1.08" fill="white"/>
<circle cx="140.46" cy="19.77" r="1.08" fill="white"/>
<circle cx="149.96" cy="19.77" r="1.08" fill="white"/>
<circle cx="83.50" cy="27.99" r="0.60" fill="white"/>
<circle cx="92.99" cy="27.99" r="1.08" fill="white"/>
<circle cx="102.49" cy="27.99" r="1.08" fill="white"/>
<circle cx="111.98" cy="27.99" r="1.08" fill="white"/>
<circle cx="121.47" cy="27.99" r="1.35" fill="white"/>
<circle cx="130.97" cy="27.99" r="1.35" fill="white"/>
<circle cx="140.46" cy="27.99" r="1.08" fill="white"/>
<circle cx="149.96" cy="27.99" r="1.08" fill="white"/>
<circle cx="159.45" cy="27.99" r="1.08" fill="white"/>
<circle cx="168.94" cy="27.99" r="0.60" fill="white"/>
<circle cx="74.00" cy="36.21" r="1.08" fill="white"/>
<circle cx="83.50" cy="36.21" r="1.08" fill="white"/>
<circle cx="92.99" cy="36.21" r="1.08" fill="white"/>
<circle cx="102.49" cy="36.21" r="1.35" fill="white"/>
<circle cx="111.98" cy="36.21" r="1.35" fill="white"/>
<circle cx="121.47" cy="36.21" r="1.35" fill="white"/>
<circle cx="130.97" cy="36.21" r="1.35" fill="white"/>
<circle cx="140.46" cy="36.21" r="1.35" fill="white"/>
<circle cx="149.96" cy="36.21" r="1.35" fill="white"/>
<circle cx="159.45" cy="36.21" r="1.08" fill="white"/>
<circle cx="168.94" cy="36.21" r="1.08" fill="white"/>
<circle cx="178.44" cy="36.21" r="1.08" fill="white"/>
<circle cx="55.02" cy="44.43" r="0.60" fill="white"/>
<circle cx="64.51" cy="44.43" r="1.08" fill="white"/>
<circle cx="74.00" cy="44.43" r="1.08" fill="white"/>
<circle cx="83.50" cy="44.43" r="1.08" fill="white"/>
<circle cx="92.99" cy="44.43" r="1.35" fill="white"/>
<circle cx="102.49" cy="44.43" r="1.35" fill="white"/>
<circle cx="111.98" cy="44.43" r="1.35" fill="white"/>
<circle cx="121.47" cy="44.43" r="1.35" fill="white"/>
<circle cx="130.97" cy="44.43" r="1.35" fill="white"/>
<circle cx="140.46" cy="44.43" r="1.35" fill="white"/>
<circle cx="149.96" cy="44.43" r="1.35" fill="white"/>
<circle cx="159.45" cy="44.43" r="1.35" fill="white"/>
<circle cx="168.94" cy="44.43" r="1.08" fill="white"/>
<circle cx="178.44" cy="44.43" r="1.08" fill="white"/>
<circle cx="187.93" cy="44.43" r="1.08" fill="white"/>
<circle cx="197.43" cy="44.43" r="0.60" fill="white"/>
<circle cx="45.52" cy="52.65" r="1.08" fill="white"/>
<circle cx="55.02" cy="52.65" r="1.08" fill="white"/>
<circle cx="64.51" cy="52.65" r="1.08" fill="white"/>
<circle cx="74.00" cy="52.65" r="1.35" fill="white"/>
<circle cx="83.50" cy="52.65" r="1.35" fill="white"/>
<circle cx="92.99" cy="52.65" r="1.35" fill="white"/>
<circle cx="102.49" cy="52.65" r="1.35" fill="white"/>
<circle cx="111.98" cy="52.65" r="1.81" fill="white"/>
<circle cx="121.47" cy="52.65" r="1.81" fill="white"/>
<circle cx="130.97" cy="52.65" r="1.81" fill="white"/>
<circle cx="140.46" cy="52.65" r="1.81" fill="white"/>
<circle cx="149.96" cy="52.65" r="1.35" fill="white"/>
<circle cx="159.45" cy="52.65" r="1.35" fill="white"/>
<circle cx="168.94" cy="52.65" r="1.35" fill="white"/>
<circle cx="178.44" cy="52.65" r="1.35" fill="white"/>
<circle cx="187.93" cy="52.65" r="1.08" fill="white"/>
<circle cx="197.43" cy="52.65" r="1.08" fill="white"/>
<circle cx="206.92" cy="52.65" r="1.08" fill="white"/>
<circle cx="26.54" cy="60.87" r="0.60" fill="white"/>
<circle cx="36.03" cy="60.87" r="1.08" fill="white"/>
<circle cx="45.52" cy="60.87" r="1.08" fill="white"/>
<circle cx="55.02" cy="60.87" r="1.08" fill="white"/>
<circle cx="64.51" cy="60.87" r="1.35" fill="white"/>
<circle cx="74.00" cy="60.87" r="1.35" fill="white"/>
<circle cx="83.50" cy="60.87" r="1.35" fill="white"/>
<circle cx="92.99" cy="60.87" r="1.35" fill="white"/>
<circle cx="102.49" cy="60.87" r="1.81" fill="white"/>
<circle cx="111.98" cy="60.87" r="1.81" fill="white"/>
<circle cx="121.47" cy="60.87" r="1.81" fill="white"/>
<circle cx="130.97" cy="60.87" r="1.81" fill="white"/>
<circle cx="140.46" cy="60.87" r="1.81" fill="white"/>
<circle cx="149.96" cy="60.87" r="1.81" fill="white"/>
<circle cx="159.45" cy="60.87" r="1.35" fill="white"/>
<circle cx="168.94" cy="60.87" r="1.35" fill="white"/>
<circle cx="178.44" cy="60.87" r="1.35" fill="white"/>
<circle cx="187.93" cy="60.87" r="1.35" fill="white"/>
<circle cx="197.43" cy="60.87" r="1.08" fill="white"/>
<circle cx="206.92" cy="60.87" r="1.08" fill="white"/>
<circle cx="216.41" cy="60.87" r="1.08" fill="white"/>
<circle cx="225.91" cy="60.87" r="0.60" fill="white"/>
<circle cx="17.04" cy="69.10" r="1.08" fill="white"/>
<circle cx="26.54" cy="69.10" r="1.08" fill="white"/>
<circle cx="36.03" cy="69.10" r="1.08" fill="white"/>
<circle cx="45.52" cy="69.10" r="1.35" fill="white"/>
<circle cx="55.02" cy="69.10" r="1.35" fill="white"/>
<circle cx="64.51" cy="69.10" r="1.35" fill="white"/>
<circle cx="74.00" cy="69.10" r="1.35" fill="white"/>
<circle cx="83.50" cy="69.10" r="1.81" fill="white"/>
<circle cx="92.99" cy="69.10" r="1.81" fill="white"/>
<circle cx="102.49" cy="69.10" r="1.81" fill="white"/>
<circle cx="111.98" cy="69.10" r="1.81" fill="white"/>
<circle cx="121.47" cy="69.10" r="1.81" fill="white"/>
<circle cx="130.97" cy="69.10" r="1.81" fill="white"/>
<circle cx="140.46" cy="69.10" r="1.81" fill="white"/>
<circle cx="149.96" cy="69.10" r="1.81" fill="white"/>
<circle cx="159.45" cy="69.10" r="1.81" fill="white"/>
<circle cx="168.94" cy="69.10" r="1.81" fill="white"/>
<circle cx="178.44" cy="69.10" r="1.35" fill="white"/>
<circle cx="187.93" cy="69.10" r="1.35" fill="white"/>
<circle cx="197.43" cy="69.10" r="1.35" fill="white"/>
<circle cx="206.92" cy="69.10" r="1.35" fill="white"/>
<circle cx="216.41" cy="69.10" r="1.08" fill="white"/>
<circle cx="225.91" cy="69.10" r="1.08" fill="white"/>
<circle cx="235.40" cy="69.10" r="1.08" fill="white"/>
<circle cx="7.55" cy="77.32" r="1.08" fill="white"/>
<circle cx="17.04" cy="77.32" r="1.08" fill="white"/>
<circle cx="26.54" cy="77.32" r="1.08" fill="white"/>
<circle cx="36.03" cy="77.32" r="1.35" fill="white"/>
<circle cx="45.52" cy="77.32" r="1.35" fill="white"/>
<circle cx="55.02" cy="77.32" r="1.35" fill="white"/>
<circle cx="64.51" cy="77.32" r="1.35" fill="white"/>
<circle cx="74.00" cy="77.32" r="1.81" fill="white"/>
<circle cx="83.50" cy="77.32" r="1.81" fill="white"/>
<circle cx="92.99" cy="77.32" r="1.81" fill="white"/>
<circle cx="102.49" cy="77.32" r="1.81" fill="white"/>
<circle cx="111.98" cy="77.32" r="1.81" fill="white"/>
<circle cx="121.47" cy="77.32" r="2.19" fill="white"/>
<circle cx="130.97" cy="77.32" r="2.19" fill="white"/>
<circle cx="140.46" cy="77.32" r="1.81" fill="white"/>
<circle cx="149.96" cy="77.32" r="1.81" fill="white"/>
<circle cx="159.45" cy="77.32" r="1.81" fill="white"/>
<circle cx="168.94" cy="77.32" r="1.81" fill="white"/>
<circle cx="178.44" cy="77.32" r="1.81" fill="white"/>
<circle cx="187.93" cy="77.32" r="1.35" fill="white"/>
<circle cx="197.43" cy="77.32" r="1.35" fill="white"/>
<circle cx="206.92" cy="77.32" r="1.35" fill="white"/>
<circle cx="216.41" cy="77.32" r="1.35" fill="white"/>
<circle cx="225.91" cy="77.32" r="1.08" fill="white"/>
<circle cx="235.40" cy="77.32" r="1.08" fill="white"/>
<circle cx="244.90" cy="77.32" r="1.08" fill="white"/>
<circle cx="7.55" cy="85.54" r="1.08" fill="white"/>
<circle cx="17.04" cy="85.54" r="1.35" fill="white"/>
<circle cx="26.54" cy="85.54" r="1.35" fill="white"/>
<circle cx="36.03" cy="85.54" r="1.35" fill="white"/>
<circle cx="45.52" cy="85.54" r="1.35" fill="white"/>
<circle cx="55.02" cy="85.54" r="1.81" fill="white"/>
<circle cx="64.51" cy="85.54" r="1.81" fill="white"/>
<circle cx="74.00" cy="85.54" r="1.81" fill="white"/>
<circle cx="83.50" cy="85.54" r="1.81" fill="white"/>
<circle cx="92.99" cy="85.54" r="1.81" fill="white"/>
<circle cx="102.49" cy="85.54" r="2.19" fill="white"/>
<circle cx="111.98" cy="85.54" r="2.19" fill="white"/>
<circle cx="121.47" cy="85.54" r="2.19" fill="white"/>
<circle cx="130.97" cy="85.54" r="2.19" fill="white"/>
<circle cx="140.46" cy="85.54" r="2.19" fill="white"/>
<circle cx="149.96" cy="85.54" r="2.19" fill="white"/>
<circle cx="159.45" cy="85.54" r="1.81" fill="white"/>
<circle cx="168.94" cy="85.54" r="1.81" fill="white"/>
<circle cx="178.44" cy="85.54" r="1.81" fill="white"/>
<circle cx="187.93" cy="85.54" r="1.81" fill="white"/>
<circle cx="197.43" cy="85.54" r="1.81" fill="white"/>
<circle cx="206.92" cy="85.54" r="1.35" fill="white"/>
<circle cx="216.41" cy="85.54" r="1.35" fill="white"/>
<circle cx="225.91" cy="85.54" r="1.35" fill="white"/>
<circle cx="235.40" cy="85.54" r="1.35" fill="white"/>
<circle cx="244.90" cy="85.54" r="1.08" fill="white"/>
<circle cx="7.55" cy="93.76" r="1.35" fill="white"/>
<circle cx="17.04" cy="93.76" r="1.35" fill="white"/>
<circle cx="26.54" cy="93.76" r="1.35" fill="white"/>
<circle cx="36.03" cy="93.76" r="1.35" fill="white"/>
<circle cx="45.52" cy="93.76" r="1.81" fill="white"/>
<circle cx="55.02" cy="93.76" r="1.81" fill="white"/>
<circle cx="64.51" cy="93.76" r="1.81" fill="white"/>
<circle cx="74.00" cy="93.76" r="1.81" fill="white"/>
<circle cx="83.50" cy="93.76" r="1.81" fill="white"/>
<circle cx="92.99" cy="93.76" r="2.19" fill="white"/>
<circle cx="102.49" cy="93.76" r="2.19" fill="white"/>
<circle cx="111.98" cy="93.76" r="2.19" fill="white"/>
<circle cx="121.47" cy="93.76" r="2.19" fill="white"/>
<circle cx="130.97" cy="93.76" r="2.19" fill="white"/>
<circle cx="140.46" cy="93.76" r="2.19" fill="white"/>
<circle cx="149.96" cy="93.76" r="2.19" fill="white"/>
<circle cx="159.45" cy="93.76" r="2.19" fill="white"/>
<circle cx="168.94" cy="93.76" r="1.81" fill="white"/>
<circle cx="178.44" cy="93.76" r="1.81" fill="white"/>
<circle cx="187.93" cy="93.76" r="1.81" fill="white"/>
<circle cx="197.43" cy="93.76" r="1.81" fill="white"/>
<circle cx="206.92" cy="93.76" r="1.81" fill="white"/>
<circle cx="216.41" cy="93.76" r="1.35" fill="white"/>
<circle cx="225.91" cy="93.76" r="1.35" fill="white"/>
<circle cx="235.40" cy="93.76" r="1.35" fill="white"/>
<circle cx="244.90" cy="93.76" r="1.35" fill="white"/>
<circle cx="7.55" cy="101.98" r="1.35" fill="white"/>
<circle cx="17.04" cy="101.98" r="1.35" fill="white"/>
<circle cx="26.54" cy="101.98" r="1.81" fill="white"/>
<circle cx="36.03" cy="101.98" r="1.81" fill="white"/>
<circle cx="45.52" cy="101.98" r="1.81" fill="white"/>
<circle cx="55.02" cy="101.98" r="1.81" fill="white"/>
<circle cx="64.51" cy="101.98" r="1.81" fill="white"/>
<circle cx="74.00" cy="101.98" r="2.19" fill="white"/>
<circle cx="83.50" cy="101.98" r="2.19" fill="white"/>
<circle cx="92.99" cy="101.98" r="2.19" fill="white"/>
<circle cx="102.49" cy="101.98" r="2.19" fill="white"/>
<circle cx="111.98" cy="101.98" r="2.19" fill="white"/>
<circle cx="121.47" cy="101.98" r="2.19" fill="white"/>
<circle cx="130.97" cy="101.98" r="2.19" fill="white"/>
<circle cx="140.46" cy="101.98" r="2.19" fill="white"/>
<circle cx="149.96" cy="101.98" r="2.19" fill="white"/>
<circle cx="159.45" cy="101.98" r="2.19" fill="white"/>
<circle cx="168.94" cy="101.98" r="2.19" fill="white"/>
<circle cx="178.44" cy="101.98" r="2.19" fill="white"/>
<circle cx="187.93" cy="101.98" r="1.81" fill="white"/>
<circle cx="197.43" cy="101.98" r="1.81" fill="white"/>
<circle cx="206.92" cy="101.98" r="1.81" fill="white"/>
<circle cx="216.41" cy="101.98" r="1.81" fill="white"/>
<circle cx="225.91" cy="101.98" r="1.81" fill="white"/>
<circle cx="235.40" cy="101.98" r="1.35" fill="white"/>
<circle cx="244.90" cy="101.98" r="1.35" fill="white"/>
<circle cx="7.55" cy="110.21" r="1.35" fill="white"/>
<circle cx="17.04" cy="110.21" r="1.81" fill="white"/>
<circle cx="26.54" cy="110.21" r="1.81" fill="white"/>
<circle cx="36.03" cy="110.21" r="1.81" fill="white"/>
<circle cx="45.52" cy="110.21" r="1.81" fill="white"/>
<circle cx="55.02" cy="110.21" r="1.81" fill="white"/>
<circle cx="64.51" cy="110.21" r="2.19" fill="white"/>
<circle cx="74.00" cy="110.21" r="2.19" fill="white"/>
<circle cx="83.50" cy="110.21" r="2.19" fill="white"/>
<circle cx="92.99" cy="110.21" r="2.19" fill="white"/>
<circle cx="102.49" cy="110.21" r="2.19" fill="white"/>
<circle cx="111.98" cy="110.21" r="2.59" fill="white"/>
<circle cx="121.47" cy="110.21" r="2.59" fill="white"/>
<circle cx="130.97" cy="110.21" r="2.59" fill="white"/>
<circle cx="140.46" cy="110.21" r="2.59" fill="white"/>
<circle cx="149.96" cy="110.21" r="2.19" fill="white"/>
<circle cx="159.45" cy="110.21" r="2.19" fill="white"/>
<circle cx="168.94" cy="110.21" r="2.19" fill="white"/>
<circle cx="178.44" cy="110.21" r="2.19" fill="white"/>
<circle cx="187.93" cy="110.21" r="2.19" fill="white"/>
<circle cx="197.43" cy="110.21" r="1.81" fill="white"/>
<circle cx="206.92" cy="110.21" r="1.81" fill="white"/>
<circle cx="216.41" cy="110.21" r="1.81" fill="white"/>
<circle cx="225.91" cy="110.21" r="1.81" fill="white"/>
<circle cx="235.40" cy="110.21" r="1.81" fill="white"/>
<circle cx="244.90" cy="110.21" r="1.35" fill="white"/>
<circle cx="7.55" cy="118.43" r="1.81" fill="white"/>
<circle cx="17.04" cy="118.43" r="1.81" fill="white"/>
<circle cx="26.54" cy="118.43" r="1.81" fill="white"/>
<circle cx="36.03" cy="118.43" r="1.81" fill="white"/>
<circle cx="45.52" cy="118.43" r="2.19" fill="white"/>
<circle cx="55.02" cy="118.43" r="2.19" fill="white"/>
<circle cx="64.51" cy="118.43" r="2.19" fill="white"/>
<circle cx="74.00" cy="118.43" r="2.19" fill="white"/>
<circle cx="83.50" cy="118.43" r="2.19" fill="white"/>
<circle cx="92.99" cy="118.43" r="2.19" fill="white"/>
<circle cx="102.49" cy="118.43" r="2.59" fill="white"/>
<circle cx="111.98" cy="118.43" r="2.59" fill="white"/>
<circle cx="121.47" cy="118.43" r="2.59" fill="white"/>
<circle cx="130.97" cy="118.43" r="2.59" fill="white"/>
<circle cx="140.46" cy="118.43" r="2.59" fill="white"/>
<circle cx="149.96" cy="118.43" r="2.59" fill="white"/>
<circle cx="159.45" cy="118.43" r="2.19" fill="white"/>
<circle cx="168.94" cy="118.43" r="2.19" fill="white"/>
<circle cx="178.44" cy="118.43" r="2.19" fill="white"/>
<circle cx="187.93" cy="118.43" r="2.19" fill="white"/>
<circle cx="197.43" cy="118.43" r="2.19" fill="white"/>
<circle cx="206.92" cy="118.43" r="2.19" fill="white"/>
<circle cx="216.41" cy="118.43" r="1.81" fill="white"/>
<circle cx="225.91" cy="118.43" r="1.81" fill="white"/>
<circle cx="235.40" cy="118.43" r="1.81" fill="white"/>
<circle cx="244.90" cy="118.43" r="1.81" fill="white"/>
<circle cx="7.55" cy="126.65" r="1.81" fill="white"/>
<circle cx="17.04" cy="126.65" r="1.81" fill="white"/>
<circle cx="26.54" cy="126.65" r="1.81" fill="white"/>
<circle cx="36.03" cy="126.65" r="2.19" fill="white"/>
<circle cx="45.52" cy="126.65" r="2.19" fill="white"/>
<circle cx="55.02" cy="126.65" r="2.19" fill="white"/>
<circle cx="64.51" cy="126.65" r="2.19" fill="white"/>
<circle cx="74.00" cy="126.65" r="2.19" fill="white"/>
<circle cx="83.50" cy="126.65" r="2.59" fill="white"/>
<circle cx="92.99" cy="126.65" r="2.59" fill="white"/>
<circle cx="102.49" cy="126.65" r="2.59" fill="white"/>
<circle cx="111.98" cy="126.65" r="2.59" fill="white"/>
<circle cx="121.47" cy="126.65" r="2.59" fill="white"/>
<circle cx="130.97" cy="126.65" r="2.59" fill="white"/>
<circle cx="140.46" cy="126.65" r="2.59" fill="white"/>
<circle cx="149.96" cy="126.65" r="2.59" fill="white"/>
<circle cx="159.45" cy="126.65" r="2.59" fill="white"/>
<circle cx="168.94" cy="126.65" r="2.59" fill="white"/>
<circle cx="178.44" cy="126.65" r="2.19" fill="white"/>
<circle cx="187.93" cy="126.65" r="2.19" fill="white"/>
<circle cx="197.43" cy="126.65" r="2.19" fill="white"/>
<circle cx="206.92" cy="126.65" r="2.19" fill="white"/>
<circle cx="216.41" cy="126.65" r="2.19" fill="white"/>
<circle cx="225.91" cy="126.65" r="1.81" fill="white"/>
<circle cx="235.40" cy="126.65" r="1.81" fill="white"/>
<circle cx="244.90" cy="126.65" r="1.81" fill="white"/>
<circle cx="7.55" cy="134.87" r="1.81" fill="white"/>
<circle cx="17.04" cy="134.87" r="2.19" fill="white"/>
<circle cx="26.54" cy="134.87" r="2.19" fill="white"/>
<circle cx="36.03" cy="134.87" r="2.19" fill="white"/>
<circle cx="45.52" cy="134.87" r="2.19" fill="white"/>
<circle cx="55.02" cy="134.87" r="2.19" fill="white"/>
<circle cx="64.51" cy="134.87" r="2.19" fill="white"/>
<circle cx="74.00" cy="134.87" r="2.59" fill="white"/>
<circle cx="83.50" cy="134.87" r="2.59" fill="white"/>
<circle cx="92.99" cy="134.87" r="2.59" fill="white"/>
<circle cx="102.49" cy="134.87" r="2.59" fill="white"/>
<circle cx="111.98" cy="134.87" r="2.59" fill="white"/>
<circle cx="121.47" cy="134.87" r="2.59" fill="white"/>
<circle cx="130.97" cy="134.87" r="2.59" fill="white"/>
<circle cx="140.46" cy="134.87" r="2.59" fill="white"/>
<circle cx="149.96" cy="134.87" r="2.59" fill="white"/>
<circle cx="159.45" cy="134.87" r="2.59" fill="white"/>
<circle cx="168.94" cy="134.87" r="2.59" fill="white"/>
<circle cx="178.44" cy="134.87" r="2.59" fill="white"/>
<circle cx="187.93" cy="134.87" r="2.19" fill="white"/>
<circle cx="197.43" cy="134.87" r="2.19" fill="white"/>
<circle cx="206.92" cy="134.87" r="2.19" fill="white"/>
<circle cx="216.41" cy="134.87" r="2.19" fill="white"/>
<circle cx="225.91" cy="134.87" r="2.19" fill="white"/>
<circle cx="235.40" cy="134.87" r="2.19" fill="white"/>
<circle cx="244.90" cy="134.87" r="1.81" fill="white"/>
<circle cx="7.55" cy="143.09" r="2.19" fill="white"/>
<circle cx="17.04" cy="143.09" r="2.19" fill="white"/>
<circle cx="26.54" cy="143.09" r="2.19" fill="white"/>
<circle cx="36.03" cy="143.09" r="2.19" fill="white"/>
<circle cx="45.52" cy="143.09" r="2.19" fill="white"/>
<circle cx="55.02" cy="143.09" r="2.59" fill="white"/>
<circle cx="64.51" cy="143.09" r="2.59" fill="white"/>
<circle cx="74.00" cy="143.09" r="2.59" fill="white"/>
<circle cx="83.50" cy="143.09" r="2.59" fill="white"/>
<circle cx="92.99" cy="143.09" r="2.59" fill="white"/>
<circle cx="102.49" cy="143.09" r="2.59" fill="white"/>
<circle cx="111.98" cy="143.09" r="2.59" fill="white"/>
<circle cx="121.47" cy="143.09" r="2.59" fill="white"/>
<circle cx="130.97" cy="143.09" r="2.59" fill="white"/>
<circle cx="140.46" cy="143.09" r="2.59" fill="white"/>
<circle cx="149.96" cy="143.09" r="2.59" fill="white"/>
<circle cx="159.45" cy="143.09" r="2.59" fill="white"/>
<circle cx="168.94" cy="143.09" r="2.59" fill="white"/>
<circle cx="178.44" cy="143.09" r="2.59" fill="white"/>
<circle cx="187.93" cy="143.09" r="2.59" fill="white"/>
<circle cx="197.43" cy="143.09" r="2.59" fill="white"/>
<circle cx="206.92" cy="143.09" r="2.19" fill="white"/>
<circle cx="216.41" cy="143.09" r="2.19" fill="white"/>
<circle cx="225.91" cy="143.09" r="2.19" fill="white"/>
<circle cx="235.40" cy="143.09" r="2.19" fill="white"/>
<circle cx="244.90" cy="143.09" r="2.19" fill="white"/>
<circle cx="7.55" cy="151.32" r="1.81" fill="white"/>
<circle cx="17.04" cy="151.32" r="2.19" fill="white"/>
<circle cx="26.54" cy="151.32" r="2.19" fill="white"/>
<circle cx="36.03" cy="151.32" r="2.19" fill="white"/>
<circle cx="45.52" cy="151.32" r="2.19" fill="white"/>
<circle cx="55.02" cy="151.32" r="2.19" fill="white"/>
<circle cx="64.51" cy="151.32" r="2.19" fill="white"/>
<circle cx="74.00" cy="151.32" r="2.59" fill="white"/>
<circle cx="83.50" cy="151.32" r="2.59" fill="white"/>
<circle cx="92.99" cy="151.32" r="2.59" fill="white"/>
<circle cx="102.49" cy="151.32" r="2.59" fill="white"/>
<circle cx="111.98" cy="151.32" r="2.59" fill="white"/>
<circle cx="121.47" cy="151.32" r="2.59" fill="white"/>
<circle cx="130.97" cy="151.32" r="2.59" fill="white"/>
<circle cx="140.46" cy="151.32" r="2.59" fill="white"/>
<circle cx="149.96" cy="151.32" r="2.59" fill="white"/>
<circle cx="159.45" cy="151.32" r="2.59" fill="white"/>
<circle cx="168.94" cy="151.32" r="2.59" fill="white"/>
<circle cx="178.44" cy="151.32" r="2.59" fill="white"/>
<circle cx="187.93" cy="151.32" r="2.19" fill="white"/>
<circle cx="197.43" cy="151.32" r="2.19" fill="white"/>
<circle cx="206.92" cy="151.32" r="2.19" fill="white"/>
<circle cx="216.41" cy="151.32" r="2.19" fill="white"/>
<circle cx="225.91" cy="151.32" r="2.19" fill="white"/>
<circle cx="235.40" cy="151.32" r="2.19" fill="white"/>
<circle cx="244.90" cy="151.32" r="1.81" fill="white"/>
<circle cx="7.55" cy="159.54" r="1.81" fill="white"/>
<circle cx="17.04" cy="159.54" r="1.81" fill="white"/>
<circle cx="26.54" cy="159.54" r="2.19" fill="white"/>
<circle cx="36.03" cy="159.54" r="2.19" fill="white"/>
<circle cx="45.52" cy="159.54" r="2.19" fill="white"/>
<circle cx="55.02" cy="159.54" r="2.19" fill="white"/>
<circle cx="64.51" cy="159.54" r="2.19" fill="white"/>
<circle cx="74.00" cy="159.54" r="2.19" fill="white"/>
<circle cx="83.50" cy="159.54" r="2.59" fill="white"/>
<circle cx="92.99" cy="159.54" r="2.59" fill="white"/>
<circle cx="102.49" cy="159.54" r="2.59" fill="white"/>
<circle cx="111.98" cy="159.54" r="2.59" fill="white"/>
<circle cx="121.47" cy="159.54" r="2.59" fill="white"/>
<circle cx="130.97" cy="159.54" r="2.59" fill="white"/>
<circle cx="140.46" cy="159.54" r="2.59" fill="white"/>
<circle cx="149.96" cy="159.54" r="2.59" fill="white"/>
<circle cx="159.45" cy="159.54" r="2.59" fill="white"/>
<circle cx="168.94" cy="159.54" r="2.59" fill="white"/>
<circle cx="178.44" cy="159.54" r="2.19" fill="white"/>
<circle cx="187.93" cy="159.54" r="2.19" fill="white"/>
<circle cx="197.43" cy="159.54" r="2.19" fill="white"/>
<circle cx="206.92" cy="159.54" r="2.19" fill="white"/>
<circle cx="216.41" cy="159.54" r="2.19" fill="white"/>
<circle cx="225.91" cy="159.54" r="2.19" fill="white"/>
<circle cx="235.40" cy="159.54" r="1.81" fill="white"/>
<circle cx="244.90" cy="159.54" r="1.81" fill="white"/>
<circle cx="7.55" cy="167.76" r="1.81" fill="white"/>
<circle cx="17.04" cy="167.76" r="1.81" fill="white"/>
<circle cx="26.54" cy="167.76" r="1.81" fill="white"/>
<circle cx="36.03" cy="167.76" r="1.81" fill="white"/>
<circle cx="45.52" cy="167.76" r="2.19" fill="white"/>
<circle cx="55.02" cy="167.76" r="2.19" fill="white"/>
<circle cx="64.51" cy="167.76" r="2.19" fill="white"/>
<circle cx="74.00" cy="167.76" r="2.19" fill="white"/>
<circle cx="83.50" cy="167.76" r="2.19" fill="white"/>
<circle cx="92.99" cy="167.76" r="2.19" fill="white"/>
<circle cx="102.49" cy="167.76" r="2.59" fill="white"/>
<circle cx="111.98" cy="167.76" r="2.59" fill="white"/>
<circle cx="121.47" cy="167.76" r="2.59" fill="white"/>
<circle cx="130.97" cy="167.76" r="2.59" fill="white"/>
<circle cx="140.46" cy="167.76" r="2.59" fill="white"/>
<circle cx="149.96" cy="167.76" r="2.59" fill="white"/>
<circle cx="159.45" cy="167.76" r="2.19" fill="white"/>
<circle cx="168.94" cy="167.76" r="2.19" fill="white"/>
<circle cx="178.44" cy="167.76" r="2.19" fill="white"/>
<circle cx="187.93" cy="167.76" r="2.19" fill="white"/>
<circle cx="197.43" cy="167.76" r="2.19" fill="white"/>
<circle cx="206.92" cy="167.76" r="2.19" fill="white"/>
<circle cx="216.41" cy="167.76" r="1.81" fill="white"/>
<circle cx="225.91" cy="167.76" r="1.81" fill="white"/>
<circle cx="235.40" cy="167.76" r="1.81" fill="white"/>
<circle cx="244.90" cy="167.76" r="1.81" fill="white"/>
<circle cx="7.55" cy="175.98" r="1.81" fill="white"/>
<circle cx="17.04" cy="175.98" r="1.81" fill="white"/>
<circle cx="26.54" cy="175.98" r="1.81" fill="white"/>
<circle cx="36.03" cy="175.98" r="1.81" fill="white"/>
<circle cx="45.52" cy="175.98" r="1.81" fill="white"/>
<circle cx="55.02" cy="175.98" r="2.19" fill="white"/>
<circle cx="64.51" cy="175.98" r="2.19" fill="white"/>
<circle cx="74.00" cy="175.98" r="2.19" fill="white"/>
<circle cx="83.50" cy="175.98" r="2.19" fill="white"/>
<circle cx="92.99" cy="175.98" r="2.19" fill="white"/>
<circle cx="102.49" cy="175.98" r="2.19" fill="white"/>
<circle cx="111.98" cy="175.98" r="2.59" fill="white"/>
<circle cx="121.47" cy="175.98" r="2.59" fill="white"/>
<circle cx="130.97" cy="175.98" r="2.59" fill="white"/>
<circle cx="140.46" cy="175.98" r="2.59" fill="white"/>
<circle cx="149.96" cy="175.98" r="2.19" fill="white"/>
<circle cx="159.45" cy="175.98" r="2.19" fill="white"/>
<circle cx="168.94" cy="175.98" r="2.19" fill="white"/>
<circle cx="178.44" cy="175.98" r="2.19" fill="white"/>
<circle cx="187.93" cy="175.98" r="2.19" fill="white"/>
<circle cx="197.43" cy="175.98" r="2.19" fill="white"/>
<circle cx="206.92" cy="175.98" r="1.81" fill="white"/>
<circle cx="216.41" cy="175.98" r="1.81" fill="white"/>
<circle cx="225.91" cy="175.98" r="1.81" fill="white"/>
<circle cx="235.40" cy="175.98" r="1.81" fill="white"/>
<circle cx="244.90" cy="175.98" r="1.81" fill="white"/>
<circle cx="7.55" cy="184.20" r="1.35" fill="white"/>
<circle cx="17.04" cy="184.20" r="1.35" fill="white"/>
<circle cx="26.54" cy="184.20" r="1.81" fill="white"/>
<circle cx="36.03" cy="184.20" r="1.81" fill="white"/>
<circle cx="45.52" cy="184.20" r="1.81" fill="white"/>
<circle cx="55.02" cy="184.20" r="1.81" fill="white"/>
<circle cx="64.51" cy="184.20" r="1.81" fill="white"/>
<circle cx="74.00" cy="184.20" r="2.19" fill="white"/>
<circle cx="83.50" cy="184.20" r="2.19" fill="white"/>
<circle cx="92.99" cy="184.20" r="2.19" fill="white"/>
<circle cx="102.49" cy="184.20" r="2.19" fill="white"/>
<circle cx="111.98" cy="184.20" r="2.19" fill="white"/>
<circle cx="121.47" cy="184.20" r="2.19" fill="white"/>
<circle cx="130.97" cy="184.20" r="2.19" fill="white"/>
<circle cx="140.46" cy="184.20" r="2.19" fill="white"/>
<circle cx="149.96" cy="184.20" r="2.19" fill="white"/>
<circle cx="159.45" cy="184.20" r="2.19" fill="white"/>
<circle cx="168.94" cy="184.20" r="2.19" fill="white"/>
<circle cx="178.44" cy="184.20" r="2.19" fill="white"/>
<circle cx="187.93" cy="184.20" r="1.81" fill="white"/>
<circle cx="197.43" cy="184.20" r="1.81" fill="white"/>
<circle cx="206.92" cy="184.20" r="1.81" fill="white"/>
<circle cx="216.41" cy="184.20" r="1.81" fill="white"/>
<circle cx="225.91" cy="184.20" r="1.81" fill="white"/>
<circle cx="235.40" cy="184.20" r="1.35" fill="white"/>
<circle cx="244.90" cy="184.20" r="1.35" fill="white"/>
<circle cx="7.55" cy="192.43" r="1.35" fill="white"/>
<circle cx="17.04" cy="192.43" r="1.35" fill="white"/>
<circle cx="26.54" cy="192.43" r="1.35" fill="white"/>
<circle cx="36.03" cy="192.43" r="1.81" fill="white"/>
<circle cx="45.52" cy="192.43" r="1.81" fill="white"/>
<circle cx="55.02" cy="192.43" r="1.81" fill="white"/>
<circle cx="64.51" cy="192.43" r="1.81" fill="white"/>
<circle cx="74.00" cy="192.43" r="1.81" fill="white"/>
<circle cx="83.50" cy="192.43" r="2.19" fill="white"/>
<circle cx="92.99" cy="192.43" r="2.19" fill="white"/>
<circle cx="102.49" cy="192.43" r="2.19" fill="white"/>
<circle cx="111.98" cy="192.43" r="2.19" fill="white"/>
<circle cx="121.47" cy="192.43" r="2.19" fill="white"/>
<circle cx="130.97" cy="192.43" r="2.19" fill="white"/>
<circle cx="140.46" cy="192.43" r="2.19" fill="white"/>
<circle cx="149.96" cy="192.43" r="2.19" fill="white"/>
<circle cx="159.45" cy="192.43" r="2.19" fill="white"/>
<circle cx="168.94" cy="192.43" r="2.19" fill="white"/>
<circle cx="178.44" cy="192.43" r="1.81" fill="white"/>
<circle cx="187.93" cy="192.43" r="1.81" fill="white"/>
<circle cx="197.43" cy="192.43" r="1.81" fill="white"/>
<circle cx="206.92" cy="192.43" r="1.81" fill="white"/>
<circle cx="216.41" cy="192.43" r="1.81" fill="white"/>
<circle cx="225.91" cy="192.43" r="1.35" fill="white"/>
<circle cx="235.40" cy="192.43" r="1.35" fill="white"/>
<circle cx="244.90" cy="192.43" r="1.35" fill="white"/>
<circle cx="7.55" cy="200.65" r="1.08" fill="white"/>
<circle cx="17.04" cy="200.65" r="1.35" fill="white"/>
<circle cx="26.54" cy="200.65" r="1.35" fill="white"/>
<circle cx="36.03" cy="200.65" r="1.35" fill="white"/>
<circle cx="45.52" cy="200.65" r="1.35" fill="white"/>
<circle cx="55.02" cy="200.65" r="1.81" fill="white"/>
<circle cx="64.51" cy="200.65" r="1.81" fill="white"/>
<circle cx="74.00" cy="200.65" r="1.81" fill="white"/>
<circle cx="83.50" cy="200.65" r="1.81" fill="white"/>
<circle cx="92.99" cy="200.65" r="1.81" fill="white"/>
<circle cx="102.49" cy="200.65" r="2.19" fill="white"/>
<circle cx="111.98" cy="200.65" r="2.19" fill="white"/>
<circle cx="121.47" cy="200.65" r="2.19" fill="white"/>
<circle cx="130.97" cy="200.65" r="2.19" fill="white"/>
<circle cx="140.46" cy="200.65" r="2.19" fill="white"/>
<circle cx="149.96" cy="200.65" r="2.19" fill="white"/>
<circle cx="159.45" cy="200.65" r="1.81" fill="white"/>
<circle cx="168.94" cy="200.65" r="1.81" fill="white"/>
<circle cx="178.44" cy="200.65" r="1.81" fill="white"/>
<circle cx="187.93" cy="200.65" r="1.81" fill="white"/>
<circle cx="197.43" cy="200.65" r="1.81" fill="white"/>
<circle cx="206.92" cy="200.65" r="1.35" fill="white"/>
<circle cx="216.41" cy="200.65" r="1.35" fill="white"/>
<circle cx="225.91" cy="200.65" r="1.35" fill="white"/>
<circle cx="235.40" cy="200.65" r="1.35" fill="white"/>
<circle cx="244.90" cy="200.65" r="1.08" fill="white"/>
<circle cx="7.55" cy="208.87" r="1.08" fill="white"/>
<circle cx="17.04" cy="208.87" r="1.08" fill="white"/>
<circle cx="26.54" cy="208.87" r="1.35" fill="white"/>
<circle cx="36.03" cy="208.87" r="1.35" fill="white"/>
<circle cx="45.52" cy="208.87" r="1.35" fill="white"/>
<circle cx="55.02" cy="208.87" r="1.35" fill="white"/>
<circle cx="64.51" cy="208.87" r="1.81" fill="white"/>
<circle cx="74.00" cy="208.87" r="1.81" fill="white"/>
<circle cx="83.50" cy="208.87" r="1.81" fill="white"/>
<circle cx="92.99" cy="208.87" r="1.81" fill="white"/>
<circle cx="102.49" cy="208.87" r="1.81" fill="white"/>
<circle cx="111.98" cy="208.87" r="2.19" fill="white"/>
<circle cx="121.47" cy="208.87" r="2.19" fill="white"/>
<circle cx="130.97" cy="208.87" r="2.19" fill="white"/>
<circle cx="140.46" cy="208.87" r="2.19" fill="white"/>
<circle cx="149.96" cy="208.87" r="1.81" fill="white"/>
<circle cx="159.45" cy="208.87" r="1.81" fill="white"/>
<circle cx="168.94" cy="208.87" r="1.81" fill="white"/>
<circle cx="178.44" cy="208.87" r="1.81" fill="white"/>
<circle cx="187.93" cy="208.87" r="1.81" fill="white"/>
<circle cx="197.43" cy="208.87" r="1.35" fill="white"/>
<circle cx="206.92" cy="208.87" r="1.35" fill="white"/>
<circle cx="216.41" cy="208.87" r="1.35" fill="white"/>
<circle cx="225.91" cy="208.87" r="1.35" fill="white"/>
<circle cx="235.40" cy="208.87" r="1.08" fill="white"/>
<circle cx="244.90" cy="208.87" r="1.08" fill="white"/>
<circle cx="7.55" cy="217.09" r="0.60" fill="white"/>
<circle cx="17.04" cy="217.09" r="1.08" fill="white"/>
<circle cx="26.54" cy="217.09" r="1.08" fill="white"/>
<circle cx="36.03" cy="217.09" r="1.08" fill="white"/>
<circle cx="45.52" cy="217.09" r="1.35" fill="white"/>
<circle cx="55.02" cy="217.09" r="1.35" fill="white"/>
<circle cx="64.51" cy="217.09" r="1.35" fill="white"/>
<circle cx="74.00" cy="217.09" r="1.35" fill="white"/>
<circle cx="83.50" cy="217.09" r="1.81" fill="white"/>
<circle cx="92.99" cy="217.09" r="1.81" fill="white"/>
<circle cx="102.49" cy="217.09" r="1.81" fill="white"/>
<circle cx="111.98" cy="217.09" r="1.81" fill="white"/>
<circle cx="121.47" cy="217.09" r="1.81" fill="white"/>
<circle cx="130.97" cy="217.09" r="1.81" fill="white"/>
<circle cx="140.46" cy="217.09" r="1.81" fill="white"/>
<circle cx="149.96" cy="217.09" r="1.81" fill="white"/>
<circle cx="159.45" cy="217.09" r="1.81" fill="white"/>
<circle cx="168.94" cy="217.09" r="1.81" fill="white"/>
<circle cx="178.44" cy="217.09" r="1.35" fill="white"/>
<circle cx="187.93" cy="217.09" r="1.35" fill="white"/>
<circle cx="197.43" cy="217.09" r="1.35" fill="white"/>
<circle cx="206.92" cy="217.09" r="1.35" fill="white"/>
<circle cx="216.41" cy="217.09" r="1.08" fill="white"/>
<circle cx="225.91" cy="217.09" r="1.08" fill="white"/>
<circle cx="235.40" cy="217.09" r="1.08" fill="white"/>
<circle cx="26.54" cy="225.31" r="0.60" fill="white"/>
<circle cx="36.03" cy="225.31" r="1.08" fill="white"/>
<circle cx="45.52" cy="225.31" r="1.08" fill="white"/>
<circle cx="55.02" cy="225.31" r="1.35" fill="white"/>
<circle cx="64.51" cy="225.31" r="1.35" fill="white"/>
<circle cx="74.00" cy="225.31" r="1.35" fill="white"/>
<circle cx="83.50" cy="225.31" r="1.35" fill="white"/>
<circle cx="92.99" cy="225.31" r="1.81" fill="white"/>
<circle cx="102.49" cy="225.31" r="1.81" fill="white"/>
<circle cx="111.98" cy="225.31" r="1.81" fill="white"/>
<circle cx="121.47" cy="225.31" r="1.81" fill="white"/>
<circle cx="130.97" cy="225.31" r="1.81" fill="white"/>
<circle cx="140.46" cy="225.31" r="1.81" fill="white"/>
<circle cx="149.96" cy="225.31" r="1.81" fill="white"/>
<circle cx="159.45" cy="225.31" r="1.81" fill="white"/>
<circle cx="168.94" cy="225.31" r="1.35" fill="white"/>
<circle cx="178.44" cy="225.31" r="1.35" fill="white"/>
<circle cx="187.93" cy="225.31" r="1.35" fill="white"/>
<circle cx="197.43" cy="225.31" r="1.35" fill="white"/>
<circle cx="206.92" cy="225.31" r="1.08" fill="white"/>
<circle cx="216.41" cy="225.31" r="1.08" fill="white"/>
<circle cx="225.91" cy="225.31" r="0.60" fill="white"/>
<circle cx="36.03" cy="233.54" r="0.60" fill="white"/>
<circle cx="45.52" cy="233.54" r="1.08" fill="white"/>
<circle cx="55.02" cy="233.54" r="1.08" fill="white"/>
<circle cx="64.51" cy="233.54" r="1.08" fill="white"/>
<circle cx="74.00" cy="233.54" r="1.35" fill="white"/>
<circle cx="83.50" cy="233.54" r="1.35" fill="white"/>
<circle cx="92.99" cy="233.54" r="1.35" fill="white"/>
<circle cx="102.49" cy="233.54" r="1.35" fill="white"/>
<circle cx="111.98" cy="233.54" r="1.81" fill="white"/>
<circle cx="121.47" cy="233.54" r="1.81" fill="white"/>
<circle cx="130.97" cy="233.54" r="1.81" fill="white"/>
<circle cx="140.46" cy="233.54" r="1.81" fill="white"/>
<circle cx="149.96" cy="233.54" r="1.35" fill="white"/>
<circle cx="159.45" cy="233.54" r="1.35" fill="white"/>
<circle cx="168.94" cy="233.54" r="1.35" fill="white"/>
<circle cx="178.44" cy="233.54" r="1.35" fill="white"/>
<circle cx="187.93" cy="233.54" r="1.08" fill="white"/>
<circle cx="197.43" cy="233.54" r="1.08" fill="white"/>
<circle cx="206.92" cy="233.54" r="1.08" fill="white"/>
<circle cx="55.02" cy="241.76" r="0.60" fill="white"/>
<circle cx="64.51" cy="241.76" r="1.08" fill="white"/>
<circle cx="74.00" cy="241.76" r="1.08" fill="white"/>
<circle cx="83.50" cy="241.76" r="1.35" fill="white"/>
<circle cx="92.99" cy="241.76" r="1.35" fill="white"/>
<circle cx="102.49" cy="241.76" r="1.35" fill="white"/>
<circle cx="111.98" cy="241.76" r="1.35" fill="white"/>
<circle cx="121.47" cy="241.76" r="1.81" fill="white"/>
<circle cx="130.97" cy="241.76" r="1.81" fill="white"/>
<circle cx="140.46" cy="241.76" r="1.35" fill="white"/>
<circle cx="149.96" cy="241.76" r="1.35" fill="white"/>
<circle cx="159.45" cy="241.76" r="1.35" fill="white"/>
<circle cx="168.94" cy="241.76" r="1.35" fill="white"/>
<circle cx="178.44" cy="241.76" r="1.08" fill="white"/>
<circle cx="187.93" cy="241.76" r="1.08" fill="white"/>
<circle cx="197.43" cy="241.76" r="0.60" fill="white"/>
<circle cx="64.51" cy="249.98" r="0.60" fill="white"/>
<circle cx="74.00" cy="249.98" r="1.08" fill="white"/>
<circle cx="83.50" cy="249.98" r="1.08" fill="white"/>
<circle cx="92.99" cy="249.98" r="1.08" fill="white"/>
<circle cx="102.49" cy="249.98" r="1.35" fill="white"/>
<circle cx="111.98" cy="249.98" r="1.35" fill="white"/>
<circle cx="121.47" cy="249.98" r="1.35" fill="white"/>
<circle cx="130.97" cy="249.98" r="1.35" fill="white"/>
<circle cx="140.46" cy="249.98" r="1.35" fill="white"/>
<circle cx="149.96" cy="249.98" r="1.35" fill="white"/>
<circle cx="159.45" cy="249.98" r="1.08" fill="white"/>
<circle cx="168.94" cy="249.98" r="1.08" fill="white"/>
<circle cx="178.44" cy="249.98" r="1.08" fill="white"/>
<circle cx="83.50" cy="258.20" r="0.60" fill="white"/>
<circle cx="92.99" cy="258.20" r="1.08" fill="white"/>
<circle cx="102.49" cy="258.20" r="1.08" fill="white"/>
<circle cx="111.98" cy="258.20" r="1.35" fill="white"/>
<circle cx="121.47" cy="258.20" r="1.35" fill="white"/>
<circle cx="130.97" cy="258.20" r="1.35" fill="white"/>
<circle cx="140.46" cy="258.20" r="1.35" fill="white"/>
<circle cx="149.96" cy="258.20" r="1.08" fill="white"/>
<circle cx="159.45" cy="258.20" r="1.08" fill="white"/>
<circle cx="168.94" cy="258.20" r="0.60" fill="white"/>
<circle cx="92.99" cy="266.42" r="0.60" fill="white"/>
<circle cx="102.49" cy="266.42" r="1.08" fill="white"/>
<circle cx="111.98" cy="266.42" r="1.08" fill="white"/>
<circle cx="121.47" cy="266.42" r="1.08" fill="white"/>
<circle cx="130.97" cy="266.42" r="1.08" fill="white"/>
<circle cx="140.46" cy="266.42" r="1.08" fill="white"/>
<circle cx="149.96" cy="266.42" r="1.08" fill="white"/>
<circle cx="111.98" cy="274.65" r="0.60" fill="white"/>
<circle cx="121.47" cy="274.65" r="1.08" fill="white"/>
<circle cx="130.97" cy="274.65" r="1.08" fill="white"/>
<circle cx="140.46" cy="274.65" r="0.60" fill="white"/>
<circle cx="121.47" cy="282.87" r="0.60" fill="white"/>
<circle cx="126.22" cy="5.08" r="1.08" fill="white"/>
<circle cx="116.73" cy="11.54" r="1.08" fill="white"/>
<circle cx="135.71" cy="11.54" r="1.08" fill="white"/>
<circle cx="130.97" cy="282.87" r="1.96" fill="white"/>
<circle cx="121.47" cy="282.87" r="1.96" fill="white"/>
</svg>